<?xml version="1.0" standalone="no"?>
<!DOCTYPE svg PUBLIC "-//W3C//DTD SVG 20010904//EN"
 "http://www.w3.org/TR/2001/REC-SVG-20010904/DTD/svg10.dtd">
<svg version="1.0" xmlns="http://www.w3.org/2000/svg"
 width="569.000000pt" height="569.000000pt" viewBox="0 0 569.000000 569.000000"
 preserveAspectRatio="xMidYMid meet">

<g transform="translate(0.000000,569.000000) scale(0.100000,-0.100000)"
fill="#000000" stroke="none">
<path d="M1563 5683 l-93 -4 0 -99 0 -100 -480 0 -480 0 0 -265 0 -265 480 0
481 0 -3 -149 -3 -150 -537 -3 -538 -3 -2 515 -3 515 -160 3 c-88 2 -175 0
-192 -3 l-33 -6 0 -2834 0 -2835 195 0 195 0 0 609 0 608 1048 5 c736 3 1049
1 1054 -6 4 -6 7 -193 5 -416 l-2 -405 -665 4 c-366 1 -667 5 -669 7 -2 2 -14
104 -28 226 -13 123 -27 250 -31 283 l-7 60 -231 3 -231 2 -6 -477 c-3 -263
-5 -479 -3 -480 2 -2 535 -6 1186 -8 l1183 -5 -8 601 c-6 501 -5 603 6 610 8
5 123 9 256 9 l241 0 7 52 c6 38 178 522 260 731 6 15 26 17 206 17 l199 0 0
148 0 149 -147 5 c-82 3 -299 3 -483 -1 l-335 -6 -46 -122 -47 -122 -7 -241
-8 -241 -51 3 -51 3 -3 1518 -2 1517 -445 0 c-245 0 -445 4 -445 8 0 16 -20
227 -25 265 l-5 37 460 0 460 0 -2 368 -3 367 -185 3 c-102 2 -208 0 -236 -3
l-51 -6 3 -82 c2 -46 1 -93 -3 -105 l-5 -22 -242 2 -241 3 -5 105 -5 105 -175
1 c-96 0 -217 -1 -267 -3z m200 -1179 c50 -26 94 -48 96 -50 3 -3 -107 -369
-116 -386 -2 -4 -48 14 -102 41 l-98 50 56 195 c30 108 59 196 63 196 5 0 50
-21 101 -46z m-506 -274 c7 0 10 -7 7 -15 -8 -20 -14 -19 -44 6 l-25 21 25 -6
c14 -3 30 -6 37 -6z m373 -160 c132 -66 240 -122 240 -123 0 -4 -33 -104 -45
-135 -4 -10 -30 0 -97 36 -51 27 -160 85 -243 127 -82 43 -151 79 -152 80 -6
3 42 135 49 135 5 0 116 -54 248 -120z m-487 36 c122 -63 504 -262 817 -424
91 -47 166 -86 168 -87 2 -2 -27 -97 -63 -211 -37 -115 -104 -325 -148 -466
-45 -142 -85 -258 -89 -258 -3 0 -114 60 -245 134 -731 410 -817 456 -844 456
-34 0 -34 0 -10 76 11 32 61 187 111 344 146 456 161 500 172 500 5 0 64 -29
131 -64z m-640 -263 c4 -157 7 -424 7 -592 l0 -307 709 -353 c692 -345 710
-355 705 -380 -3 -14 -18 -102 -33 -196 -23 -146 -25 -170 -12 -174 8 -2 66 0
128 4 l113 7 0 234 0 234 183 0 184 0 6 -351 c4 -193 5 -354 3 -358 -6 -9
-1819 -14 -1978 -5 l-128 7 0 1258 0 1259 53 0 54 0 6 -287z m1987 87 l0 -190
-176 0 -175 0 -62 42 c-34 22 -63 42 -65 43 -1 1 5 51 15 110 16 101 16 108 0
116 -10 6 -17 22 -17 39 l0 30 240 0 240 0 0 -190z m-1587 163 c15 -3 26 -11
24 -17 -4 -10 -87 -277 -155 -496 -14 -47 -29 -89 -33 -93 -5 -7 -72 27 -97
49 -4 2 176 550 186 567 2 5 14 6 26 3 11 -4 34 -9 49 -13z m-182 -29 c39 -19
49 -29 44 -42 -4 -9 -32 -93 -62 -187 -31 -93 -57 -171 -59 -173 -6 -8 -84 44
-80 53 2 6 25 92 52 193 27 100 50 182 52 182 1 0 25 -12 53 -26z m1469 -690
c22 -15 40 -31 40 -35 0 -9 -180 -570 -186 -581 -5 -9 -114 35 -114 46 0 5 33
111 74 235 69 207 129 361 141 361 3 0 23 -12 45 -26z m300 -344 l0 -190 -105
0 c-58 0 -105 4 -105 9 0 5 18 47 40 92 22 46 40 91 40 101 0 11 10 37 21 60
20 39 20 42 4 54 -10 7 -23 24 -31 38 l-13 26 75 0 74 0 0 -190z m-182 125 c7
-6 -120 -315 -129 -315 -9 0 -47 17 -57 25 -2 2 78 279 93 323 4 9 15 7 47 -9
24 -12 44 -23 46 -24z m-900 -426 c5 -13 -28 -109 -38 -109 -4 0 -99 47 -211
105 -112 58 -210 105 -217 105 -22 0 -24 27 -8 83 l16 54 227 -114 c126 -63
229 -118 231 -124z"/>
<path d="M1129 3812 c-17 -53 -45 -132 -60 -174 l-28 -77 76 -40 c42 -22 77
-39 78 -38 0 1 26 78 58 172 55 160 57 170 40 183 -10 7 -26 11 -35 8 -11 -2
-18 1 -18 10 0 7 -18 23 -39 34 l-39 20 -33 -98z"/>
<path d="M1700 3606 c0 -7 -23 -91 -51 -185 -28 -95 -49 -174 -47 -176 5 -5
127 -65 132 -65 2 0 6 10 8 23 3 12 26 93 52 181 29 95 44 162 38 168 -5 5
-37 22 -70 38 -44 20 -62 25 -62 16z"/>
<path d="M1017 3298 c-11 -39 -12 -56 -3 -64 11 -11 528 -298 557 -309 12 -5
21 8 38 51 21 55 21 58 4 68 -40 25 -569 306 -574 306 -4 0 -13 -24 -22 -52z"/>
<path d="M562 2423 c-46 -184 -51 -209 -37 -219 26 -19 965 -447 970 -443 12
13 106 392 99 399 -7 7 -970 470 -977 470 -1 0 -26 -93 -55 -207z m523 -148
c215 -103 392 -189 394 -191 5 -4 -30 -140 -40 -156 -5 -8 -131 45 -406 171
-219 101 -400 185 -402 187 -8 8 44 184 54 180 5 -3 186 -89 400 -191z"/>
<path d="M4220 5590 l0 -90 -560 0 -560 0 0 -180 0 -180 560 0 561 0 -3 -120
-3 -120 -557 0 -558 0 0 -180 0 -180 560 0 561 0 -3 -121 -3 -121 -557 1 -558
1 0 -185 0 -185 561 0 562 0 -329 -212 -329 -213 -232 2 -233 3 0 -165 0 -165
324 0 324 0 401 280 400 280 3 98 3 97 568 3 567 2 0 174 0 174 -35 6 c-20 4
-275 6 -568 5 l-532 -1 0 118 0 119 568 3 567 2 0 180 0 180 -567 0 -568 -1
-3 121 -3 120 571 0 570 0 0 180 0 180 -570 0 -570 0 0 90 0 90 -165 0 -165 0
0 -90z"/>
<path d="M4515 3527 l-290 -204 -3 -866 -2 -867 -145 0 -145 0 0 -180 0 -180
324 0 c286 0 325 2 330 16 3 9 6 191 6 406 l0 389 22 -3 c20 -3 40 -50 172
-405 l149 -403 379 0 378 0 0 180 0 179 -106 3 -106 3 -138 365 -138 365 -208
6 c-115 3 -253 7 -306 8 l-98 1 0 103 0 104 338 6 c185 4 433 7 550 7 l212 0
0 180 0 180 -555 0 -555 0 0 119 0 119 68 50 c126 93 211 145 227 139 8 -4 76
-43 151 -87 l135 -80 265 0 264 0 0 175 0 175 -222 0 -223 0 -164 100 c-156
95 -166 100 -220 100 l-56 0 -290 -203z"/>
<path d="M3100 2740 l0 -180 314 0 314 0 24 -72 25 -73 122 -3 c114 -2 122 -1
117 15 -4 10 -44 124 -89 253 l-82 235 -372 3 -373 2 0 -180z"/>
<path d="M3050 568 l0 -533 72 0 73 0 3 240 c1 139 6 243 12 249 7 7 10 0 10
-20 0 -16 46 -127 103 -249 l103 -220 82 -2 c63 -1 82 2 82 12 0 8 -49 119
-110 247 l-109 233 89 3 90 3 0 284 0 285 -250 0 -250 0 0 -532z m345 246 l0
-169 -35 -3 c-19 -2 -63 -1 -97 3 l-63 7 0 163 0 164 43 4 c23 2 67 3 97 2
l55 -2 0 -169z"/>
<path d="M3610 566 l0 -535 240 1 240 1 0 533 0 534 -240 0 -240 0 0 -534z
m273 415 l57 -1 0 -415 0 -415 -90 0 -90 0 0 413 c0 228 2 416 5 418 2 3 17 4
32 3 15 -1 54 -2 86 -3z"/>
<path d="M4150 565 l0 -535 260 0 260 0 0 285 0 285 -121 0 c-98 0 -120 3
-116 14 3 7 57 86 121 175 l116 161 0 75 0 75 -260 0 -260 0 0 -535z m350 416
c0 -2 -43 -64 -96 -137 -92 -129 -125 -168 -111 -130 4 10 7 73 7 141 l0 124
53 3 c69 5 147 4 147 -1z m20 -661 l0 -170 -110 0 -110 0 0 170 0 170 110 0
110 0 0 -170z"/>
<path d="M4710 566 l0 -534 228 1 227 2 3 533 2 532 -230 0 -230 0 0 -534z
m256 414 l54 0 -2 -412 -3 -413 -77 -3 -78 -3 0 415 c0 427 1 432 38 420 8 -2
38 -4 68 -4z"/>
<path d="M5202 1043 l3 -58 75 -2 c41 -1 83 -2 93 -2 16 -1 17 -30 17 -473 l0
-473 75 0 75 0 0 473 c0 370 3 472 13 473 6 1 40 0 75 -1 l62 -2 0 61 0 61
-245 0 -246 0 3 -57z"/>
</g>
</svg>
