<?xml version="1.0" encoding="utf-8"?>
<!-- Generator: Adobe Illustrator 21.1.0, SVG Export Plug-In . SVG Version: 6.00 Build 0)  -->
<svg version="1.1" id="圖層_1" xmlns="http://www.w3.org/2000/svg" xmlns:xlink="http://www.w3.org/1999/xlink" x="0px" y="0px"
	 viewBox="0 0 580 181.9" style="enable-background:new 0 0 580 181.9;" xml:space="preserve">
<style type="text/css">
	.st0{fill:#003366;}
	.st1{fill:#996600;}
</style>
<g>
	<g>
		<path class="st0" d="M173.3,23.6v17.5h-3.7v-1.9h-19.8v1.9H146V23.8c-0.7,0.3-1.8,0.7-3.4,1.3l-1.9-3.6c4.9-1.2,9.2-3.3,12.8-6.3
			H141v-3.3h16.6V8.6c-6.1,0.2-10.4,0.2-13,0.2l-1.3-3.7c1.5,0.1,3.4,0.1,5.7,0.1c10.7,0,18.9-0.6,24.4-1.9l1.7,3.3
			c-3.7,0.8-8.2,1.4-13.6,1.8v3.4h17v3.3h-13c3.1,3,7.5,5,13.3,6.2L177,25c-0.5-0.2-1.1-0.5-1.8-0.6
			C174.4,24.2,173.8,23.9,173.3,23.6z M148.2,22.7h9.2v-7.4C155.1,18.6,152,21.1,148.2,22.7z M169.5,26.1h-19.9v3.1h19.9V26.1z
			 M149.7,35.9h19.9v-3.6h-19.9V35.9z M161.2,15.2v7.5h10C167.1,21.1,163.8,18.6,161.2,15.2z"/>
		<path class="st0" d="M200.8,28.6c-1.1,4.4-2.8,8.4-5.1,12l-3.2-3.3c2.4-3.4,4-7,4.8-10.8L200.8,28.6z M198.3,22.1
			c-2.2-1.9-4.1-3.3-5.7-4.4l2.4-3c1.9,1,3.9,2.3,6,3.9L198.3,22.1z M202.2,7.7h5.4V3.5h3.7v4.2h7.4V3.5h3.6v4.2h6.7v3.2h-6.7v4.2
			h7.3v3.4h-7.7c1.1,2.2,3.8,4.3,8.2,6.5l-1.7,3.6c-2.5-1.5-4.5-2.9-6.1-4.4v8.3h-13v2.6c0,0.9,0.5,1.4,1.4,1.4h12
			c1.1,0,1.8-0.4,2-1.3c0.2-0.9,0.4-2.4,0.6-4.5l3.9,1.4c-0.4,3.7-1,6-1.7,6.7s-2.1,1.1-4.2,1.1H210c-1.7,0-2.9-0.3-3.6-1
			c-0.7-0.7-1-1.9-1-3.8v-9c-0.7,0.6-1.9,1.4-3.7,2.5l-2.3-3.4c4.5-2,7.3-4.3,8.5-6.8h-6.5V15h6.2v-4h-5.4V8.8l-2.5,3.1
			c-2.2-2-4.2-3.6-6-4.7l2.7-3c2.3,1.5,4.2,2.8,5.8,4V7.7z M209.1,25.2v4h9.3v-4H209.1z M212.1,18.4c-0.6,1.4-1.4,2.6-2.4,3.6H220
			c-0.9-1-1.7-2.2-2.5-3.6C217.5,18.4,212.1,18.4,212.1,18.4z M211.3,11.1v4h7.3v-4H211.3z"/>
		<path class="st0" d="M251.6,9c-1.4,0.3-3.5,0.5-6.3,0.7l-0.8-3.4c6-0.3,11.2-1.3,15.5-2.9l1.4,3.3c-1.9,0.7-4,1.2-6.1,1.7v5.7h6.1
			v3.5h-6.1V18c3,2.8,5.3,5,6.8,6.7l-2.3,3.5c-0.8-1.1-1.6-2.2-2.4-3.1c-0.7-0.8-1.4-1.7-2.1-2.7v18.7l-3.7,0.2V24.5
			c-1,2.6-2.9,5.6-5.5,9l-2.3-3.6c3.4-3.8,5.9-8,7.6-12.5H244v-3.5h7.5V9H251.6z M261,32.1v-3.8l13.5-2V3.1h3.8v22.8l3.6-0.6v3.6
			l-3.6,0.6v11.6h-3.8V30L261,32.1z M269.8,23.9c-2.8-2.3-5.2-4.1-7.3-5.4l2.4-2.7c2,1.1,4.5,2.7,7.5,5L269.8,23.9z M270.5,14.1
			c-3-2.4-5.4-4.2-7.3-5.3l2.4-2.7c1.8,1,4.2,2.6,7.4,4.9L270.5,14.1z"/>
		<path class="st0" d="M310.7,15h-4.8v7.1c2.2-0.7,3.7-1.3,4.7-1.8v4c-0.8,0.5-2.4,1.1-4.7,1.9v9.9c0,1.9-0.3,3.2-0.8,3.8
			c-0.6,0.6-1.8,1-3.8,1h-3.2l-0.9-4.1l3.5,0.1c0.9,0,1.3-0.4,1.3-1.3v-8.2c-2.3,0.6-4.1,1-5.4,1.4l-1-4.4c2.3-0.3,4.5-0.7,6.4-1.2
			v-8.1h-6v-3.7h6V3.1h4v8.3h4.8V8.8h8.7V3.1h4v5.7h9.5v3.7h-9.5v5.4h8.2v3.3c-0.3,1.5-1.2,3.3-2.7,5.7c-1.4,2.3-2.9,4.2-4.4,5.5
			c2.7,2.2,5.7,3.8,9.1,4.7l-2.1,3.8c-3.6-1.2-6.9-3.2-10-6c-4.3,3.3-8.3,5.3-12.2,6.1l-2.2-3.7c3.9-0.9,7.7-2.6,11.6-5.2
			c-2.1-2.1-4.1-5-6.1-8.6l3.3-1.3c1.9,3.3,3.7,5.9,5.6,7.7c2.7-2.2,4.7-5,5.9-8.4h-16v-3.6h8v-5.4h-8.7L310.7,15z"/>
		<path class="st0" d="M371.4,17.5c0.6,3.3,2.1,6.7,4.4,10.3c2.3,3.6,5.4,6.7,9.4,9.4l-3.1,3.7c-7.3-4.8-12.2-12.6-14.9-23.4h-0.6
			c-1.8,9.7-7.2,17.5-16.3,23.5l-3.1-3.8c3.8-2.2,7.1-5,9.8-8.6c2.7-3.5,4.4-7.2,5-11h-13.9v-4.3h14.6c0.3-2.5,0.5-5.8,0.5-10.1h4.2
			c0,4.6-0.1,8-0.3,10.1h17.1v4.3L371.4,17.5z"/>
		<path class="st0" d="M429,25.1V28c-2.4,1.3-5.3,2.4-8.8,3.5H437v3.3h-16.8v1.7c0,2.9-1.2,4.3-3.7,4.3h-5.9l-0.9-3.3l5.5,0.2
			c0.8,0,1.2-0.4,1.2-1.2v-1.7h-17.5v-3.3h17.5v-1.7c1.9-0.3,4.2-0.9,7.1-1.7h-17v-3H429z M432.6,23.3h-29.2v5.9h-3.6v-9.1h2
			l-0.4-15.5c3.5-0.1,6.5-0.5,8.9-1.2l1.8,3c-1.5,0.5-3.9,0.9-7.2,1.1l0.1,2.1h6.3v2.7h-6.2v2.3h6.1v2.8h-6.1l0.1,2.7h25.3v-2.7H425
			v-2.8h5.8l0.1-2.3H425V9.6h5.9V7.4h-6.4V4.2h10l-0.4,15.9h2.1v9.1h-3.6V23.3z M418.6,8.8c-1.3,0.9-2.9,1.7-4.7,2.5l-2.1-2.7
			c2.3-0.6,3.7-1.2,4.4-1.7c-0.7-0.5-1.6-1.2-2.7-1.9l2.2-1.9c1,0.7,2.1,1.4,3.2,2.2c1.2-0.8,2-1.5,2.5-2.2l2,1.8
			c-0.6,0.8-1.4,1.5-2.4,2.2c0.5,0.5,1.3,1.2,2.1,2.1l-2.5,1.8C419.6,9.6,418.9,8.8,418.6,8.8z M418.8,17.1
			c-1.2,0.9-2.8,1.6-4.7,2.3l-1.7-2.7c1.9-0.4,3.3-0.9,4.2-1.5c-0.5-0.4-1.4-1-2.7-1.9l2.1-1.8c0.5,0.3,1,0.6,1.4,0.9
			c0.5,0.3,1.1,0.8,1.7,1.2c0.8-0.5,1.7-1.3,2.8-2.5l2.1,1.8c-1,1-1.9,1.8-2.7,2.4c0.8,0.7,1.5,1.4,2.3,2.1l-2.6,2
			C419.7,17.9,419,17.1,418.8,17.1z"/>
	</g>
	<g>
		<path class="st0" d="M152.5,86.5h-3.7V60.2h-7v-3.4h17.8v3.4h-7v26.3H152.5z"/>
		<path class="st0" d="M180.3,68.8v-12h3.7v29.7h-3.7V72.3h-14.1v14.2h-3.7V56.8h3.7v12H180.3z"/>
		<path class="st0" d="M189.8,56.8h15.9v3.4h-12.2v8.3h11.9v3.4h-11.9v11.2h12.2v3.4h-15.9V56.8z"/>
		<path class="st0" d="M239.9,68.8v-12h3.7v29.7h-3.7V72.3h-14.1v14.2h-3.7V56.8h3.7v12H239.9z"/>
		<path class="st0" d="M278.4,71.7c0,8.8-7,15.5-15.5,15.5c-8.6,0-15.5-6.6-15.5-15.5c0-8.5,7-15.5,15.5-15.5
			C271.3,56.2,278.4,63.2,278.4,71.7z M274.7,71.7c0-6.5-4.9-12-11.8-12c-7,0-11.8,5.5-11.8,12c0,6.8,5.4,12,11.8,12
			C269.2,83.7,274.7,78.4,274.7,71.7z"/>
		<path class="st0" d="M282,55.4l22.3,23.3V56.8h3.7v30.9l-22.3-23.3v22.1H282V55.4z"/>
		<path class="st0" d="M340.6,71.5v1.2c0,8.1-5.7,14.4-14,14.4s-15-7.2-15-15.4c0-8.5,6.8-15.5,15.4-15.5c4.6,0,9.2,2.1,12.1,5.7
			l-2.6,2.5c-2.1-2.9-5.7-4.8-9.3-4.8c-6.6,0-11.8,5.4-11.8,12c0,6.2,5.1,12.1,11.5,12.1c4.6,0,9.6-4,9.7-8.8h-7.7v-3.4L340.6,71.5
			L340.6,71.5z"/>
		<path class="st0" d="M372.7,56.8h4.8l-13.3,13.3l13.6,16.3h-5l-11.2-13.8l-1.5,1.4v12.4h-3.7V56.8h3.7v12.9L372.7,56.8z"/>
		<path class="st0" d="M409.4,71.7c0,8.8-7,15.5-15.5,15.5c-8.6,0-15.5-6.6-15.5-15.5c0-8.5,7-15.5,15.5-15.5S409.4,63.2,409.4,71.7
			z M405.7,71.7c0-6.5-4.9-12-11.8-12c-7,0-11.8,5.5-11.8,12c0,6.8,5.4,12,11.8,12C400.3,83.7,405.7,78.4,405.7,71.7z"/>
		<path class="st0" d="M413.1,55.4l22.3,23.3V56.8h3.7v30.9l-22.3-23.3v22.1h-3.7V55.4z"/>
		<path class="st0" d="M471.7,71.5v1.2c0,8.1-5.7,14.4-14,14.4s-15-7.2-15-15.4c0-8.5,6.8-15.5,15.4-15.5c4.6,0,9.2,2.1,12.1,5.7
			l-2.6,2.5c-2.1-2.9-5.7-4.8-9.3-4.8c-6.6,0-11.8,5.4-11.8,12c0,6.2,5.1,12.1,11.5,12.1c4.6,0,9.6-4,9.7-8.8H460v-3.4L471.7,71.5
			L471.7,71.5z"/>
		<path class="st0" d="M147.7,104v17.5c0,4.8,1.5,9.3,7.2,9.3s7.2-4.5,7.2-9.3V104h3.7v18.8c0,6.5-4.1,11.5-10.9,11.5
			s-10.9-5-10.9-11.5V104C144,104,147.7,104,147.7,104z"/>
		<path class="st0" d="M170.8,102.6l22.3,23.3V104h3.7v30.9l-22.3-23.3v22.1h-3.7V102.6z"/>
		<path class="st0" d="M206,133.7h-3.7V104h3.7V133.7z"/>
		<path class="st0" d="M221.8,126l8.8-22h4.1l-12.9,31.2L208.9,104h4.1L221.8,126z"/>
		<path class="st0" d="M237.6,104h15.9v3.4h-12.2v8.3h11.9v3.4h-11.9v11.2h12.2v3.4h-15.9L237.6,104L237.6,104z"/>
		<path class="st0" d="M276.9,133.7h-4.5l-8.7-12.5h-1.5v12.5h-3.7V104h4.5c2.6,0,5.5,0,7.8,1.4c2.5,1.5,3.9,4.2,3.9,7.1
			c0,4.2-2.8,7.8-7.1,8.3L276.9,133.7z M262.1,118.1h1.2c3.8,0,7.9-0.7,7.9-5.4c0-4.6-4.4-5.3-8.1-5.3h-1V118.1z"/>
		<path class="st0" d="M293.4,109.7c-1.1-1.9-2.5-2.8-4.8-2.8c-2.4,0-5,1.6-5,4.2c0,2.3,2.3,3.5,4.1,4.3l2.1,0.8
			c4.2,1.7,7.4,4,7.4,8.9c0,5.4-4.2,9.2-9.5,9.2c-4.8,0-8.5-3.5-9.2-8.3l3.7-0.8c0,3.3,2.6,5.6,5.7,5.6c3.2,0,5.5-2.7,5.5-5.8
			c0-3.2-2.6-4.6-5.1-5.6l-2-0.9c-3.4-1.5-6.4-3.4-6.4-7.5c0-4.8,4.2-7.7,8.7-7.7c3.3,0,6,1.6,7.6,4.5L293.4,109.7z"/>
		<path class="st0" d="M305.3,133.7h-3.7V104h3.7V133.7z"/>
		<path class="st0" d="M319.2,133.7h-3.7v-26.3h-7V104h17.8v3.4h-7L319.2,133.7L319.2,133.7z"/>
		<path class="st0" d="M326.5,104h4.3l7.3,12.7l7.3-12.7h4.3l-9.7,16.8v12.9h-3.7v-12.9L326.5,104z"/>
		<path class="st0" d="M393.3,118.9c0,8.8-7,15.5-15.5,15.5c-8.6,0-15.5-6.6-15.5-15.5c0-8.5,7-15.5,15.5-15.5
			C386.2,103.4,393.3,110.4,393.3,118.9z M389.6,118.9c0-6.5-4.9-12-11.8-12c-7,0-11.8,5.5-11.8,12c0,6.8,5.4,12,11.8,12
			C384.1,130.9,389.6,125.6,389.6,118.9z"/>
		<path class="st0" d="M400.9,107.4v8.3h10.3v3.4h-10.3v14.6h-3.7V104h14.4v3.4C411.6,107.4,400.9,107.4,400.9,107.4z"/>
		<path class="st0" d="M441.2,109.7c-1.1-1.9-2.5-2.8-4.8-2.8c-2.4,0-5,1.6-5,4.2c0,2.3,2.3,3.5,4.1,4.3l2.1,0.8
			c4.2,1.7,7.4,4,7.4,8.9c0,5.4-4.2,9.2-9.5,9.2c-4.8,0-8.5-3.5-9.2-8.3l3.7-0.8c0,3.3,2.6,5.6,5.7,5.6c3.2,0,5.5-2.7,5.5-5.8
			c0-3.2-2.6-4.6-5.1-5.6l-2-0.9c-3.4-1.5-6.5-3.4-6.5-7.5c0-4.8,4.2-7.7,8.7-7.7c3.3,0,6,1.6,7.6,4.5L441.2,109.7z"/>
		<path class="st0" d="M471.2,109.7c-2.1-1.9-5-2.9-7.8-2.9c-6.6,0-11.7,5.5-11.7,12.1c0,6.5,5,12,11.6,12c2.9,0,5.7-1.1,7.9-3.1
			v4.4c-2.3,1.3-5.2,2.1-7.8,2.1c-8.5,0-15.5-6.7-15.5-15.3c0-8.8,7-15.6,15.8-15.6c2.6,0,5.2,0.6,7.5,2V109.7z"/>
		<path class="st0" d="M479.6,133.7h-3.7V104h3.7V133.7z"/>
		<path class="st0" d="M485.5,104h15.9v3.4h-12.2v8.3h11.9v3.4h-11.9v11.2h12.2v3.4h-15.9V104z"/>
		<path class="st0" d="M506,102.6l22.3,23.3V104h3.7v30.9l-22.3-23.3v22.1H506V102.6z"/>
		<path class="st0" d="M559.3,109.7c-2.1-1.9-5-2.9-7.8-2.9c-6.6,0-11.7,5.5-11.7,12.1c0,6.5,5,12,11.6,12c2.9,0,5.7-1.1,7.9-3.1
			v4.4c-2.3,1.3-5.2,2.1-7.8,2.1c-8.5,0-15.5-6.7-15.5-15.3c0-8.8,7-15.6,15.8-15.6c2.6,0,5.2,0.6,7.5,2V109.7z"/>
		<path class="st0" d="M564.1,104H580v3.4h-12.2v8.3h11.9v3.4h-11.9v11.2H580v3.4h-15.9V104z"/>
		<path class="st0" d="M148.7,173.5l-3.4,7.4h-4l14.2-30.9l14.2,30.9h-4l-3.4-7.4H148.7z M155.5,158.1l-5.3,12h10.5L155.5,158.1z"/>
		<path class="st0" d="M172.2,149.8l22.3,23.3v-21.9h3.7v30.9l-22.3-23.3v22.1h-3.7V149.8z"/>
		<path class="st0" d="M203.5,151.2h6.1c9.1,0,16.6,4.8,16.6,14.7c0,10.1-7.4,15-16.8,15h-6L203.5,151.2L203.5,151.2z M207.2,177.5
			h1.3c7.6,0,14.1-2.8,14.1-11.5c0-8.7-6.5-11.4-14.1-11.4h-1.3V177.5z"/>
		<path class="st0" d="M250.1,180.9h-3.7v-26.3h-7v-3.4h17.8v3.4h-7L250.1,180.9L250.1,180.9z"/>
		<path class="st0" d="M260.5,151.2h15.9v3.4h-12.2v8.3H276v3.4h-11.9v11.2h12.2v3.4h-15.9L260.5,151.2L260.5,151.2z"/>
		<path class="st0" d="M302.9,156.9c-2.1-1.9-5-2.9-7.8-2.9c-6.6,0-11.7,5.5-11.7,12.1c0,6.5,5,12,11.6,12c2.9,0,5.7-1.1,7.9-3.1
			v4.4c-2.3,1.3-5.2,2.1-7.8,2.1c-8.5,0-15.5-6.7-15.5-15.3c0-8.8,7-15.6,15.8-15.6c2.6,0,5.2,0.6,7.5,2V156.9z"/>
		<path class="st0" d="M325.3,163.2v-12h3.7v29.7h-3.7v-14.2h-14.1v14.2h-3.7v-29.7h3.7v12H325.3z"/>
		<path class="st0" d="M334.3,149.8l22.3,23.3v-21.9h3.7v30.9L338,158.8v22.1h-3.7V149.8z"/>
		<path class="st0" d="M395,166.1c0,8.8-7,15.5-15.5,15.5c-8.6,0-15.5-6.6-15.5-15.5c0-8.5,7-15.5,15.5-15.5
			C387.9,150.6,395,157.6,395,166.1z M391.3,166.1c0-6.5-4.9-12-11.8-12c-7,0-11.8,5.5-11.8,12c0,6.8,5.4,12,11.8,12
			C385.8,178.1,391.3,172.8,391.3,166.1z"/>
		<path class="st0" d="M402.6,177.5h9v3.4h-12.7v-29.7h3.7V177.5z"/>
		<path class="st0" d="M443.5,166.1c0,8.8-7,15.5-15.5,15.5c-8.6,0-15.5-6.6-15.5-15.5c0-8.5,7-15.5,15.5-15.5
			C436.4,150.6,443.5,157.6,443.5,166.1z M439.8,166.1c0-6.5-4.9-12-11.8-12c-7,0-11.8,5.5-11.8,12c0,6.8,5.4,12,11.8,12
			C434.3,178.1,439.8,172.8,439.8,166.1z"/>
		<path class="st0" d="M474.5,166v1.2c0,8.1-5.7,14.4-14,14.4s-15-7.2-15-15.4c0-8.5,6.8-15.5,15.4-15.5c4.6,0,9.2,2.1,12.1,5.7
			l-2.6,2.5c-2.1-2.9-5.7-4.8-9.3-4.8c-6.6,0-11.8,5.4-11.8,12c0,6.2,5.1,12.1,11.5,12.1c4.6,0,9.6-4,9.7-8.8h-7.7V166H474.5z"/>
		<path class="st0" d="M475.5,151.2h4.3l7.2,12.7l7.3-12.7h4.3l-9.7,16.8v12.9h-3.7V168L475.5,151.2z"/>
	</g>
	<g>
		<g>
			<path class="st1" d="M91.2,181.9l-21.3-35.5c0,0-0.7-0.8-0.7-2.2v-0.8v-1.8V78.5h-8v65.8v2c0.7,0.7,14.1,23.5,14.1,23.5H42.1
				c0,0,13.4-22.8,14.1-23.5v-2V78.5h-8v63.1v1.8v0.8c0,1.3-0.7,2.2-0.7,2.2l-21.3,35.5H91.2z"/>
		</g>
		<g>
			<path class="st1" d="M84.6,32.5c0,0,4-16.6-10.3-27.4c0,0-5.7-5.1-16.6-5.1C48,0,42.3,5.1,42.3,5.1c-13.1,9.1-9.7,27.4-9.7,27.4
				H84.6z"/>
			<path class="st1" d="M34.2,37.1h48.9c0.4-0.9,0.7-1.9,1-2.9H33.2C33.5,35.2,33.8,36.1,34.2,37.1z"/>
			<path class="st1" d="M82.3,38.8H35c0.5,1,1,1.9,1.6,2.9h44.1C81.3,40.7,81.9,39.8,82.3,38.8z"/>
			<path class="st1" d="M39.8,45.6h37.7c0.7-0.7,1.4-1.5,2-2.3H37.8C38.5,44.1,39.1,44.9,39.8,45.6z"/>
			<path class="st1" d="M43.9,49.1h29.5c0.8-0.5,1.5-1.1,2.2-1.7h-34C42.4,48,43.1,48.5,43.9,49.1z"/>
			<path class="st1" d="M48,51.3c3.3,1.5,6.9,2.3,10.7,2.3c3.8,0,7.4-0.8,10.7-2.3H48z"/>
		</g>
		<path class="st0" d="M109.4,54.9h-40c0,0-3.7,0-6.7,2c-2.3,1.6-3.9,5.2-4,5.4l0,0c-0.1-0.2-1.7-3.8-4-5.4c-3-2-6.7-2-6.7-2H8
			L0,67.7h36.7c0,0,1.1,0,1.7,0.1c1.1,0.2,3,0.8,5,2.2c2.7,2,3.5,3,4.1,3.6c0.3,0.3,1.2,1.5,1.2,1.5h9h1l0,0h3.1h6.9
			c0,0,0.9-1.2,1.2-1.5c0.7-0.7,1.4-1.7,4.1-3.6c2-1.4,3.9-2,5-2.2c0.7-0.1,1.7-0.1,1.7-0.1h36.7L109.4,54.9z"/>
		<g>
			<g>
				<path class="st0" d="M4,71.6v60c0,0,0,0.6,0,0.8c0,0.7,0,1.3,0.1,1.8c0.7,6.4,2.7,11.2,6.4,17.4c5.9,9.8,16.5,16.7,16.5,16.7
					l5-8c0,0-6.8-3.6-12.3-12c-1.1-1.7-2.2-3.2-2.9-4.8c-0.7-1.5-1.2-2.7-1.7-3.9c-0.3-0.9-0.6-1.8-0.7-2.5c-0.3-1.1-0.4-2-0.5-3
					c0-0.4-0.1-1.9-0.1-1.9v-0.3V71.6H4z"/>
				<path class="st0" d="M19.3,71.6v60.6c0,0,0,0.2,0,0.5c0,0.3,0.1,0.7,0.1,1.1c0,0.2,0.1,0.5,0.1,0.6c0.2,0.9,0.4,1.8,0.8,3
					c0.7,2,1.9,4.5,3.6,7.3c4.5,7.3,11,10.6,11,10.6l5-7.8c0,0-1.7-0.9-3.7-2.9c-1.3-1.3-2.9-3-4.3-5c-1.3-2.1-2.1-4.1-2.6-5.7
					c-0.4-1.3-0.5-2.4-0.5-3s0-0.9,0-0.9V71.6H19.3z"/>
			</g>
			<g>
				<path class="st0" d="M113.4,71.6v60c0,0,0,0.6,0,0.8c0,0.7,0,1.3-0.1,1.8c-0.7,6.4-2.7,11.2-6.4,17.4
					c-5.9,9.8-16.5,16.7-16.5,16.7l-5-8c0,0,6.8-3.6,12.3-12c1.1-1.7,2.2-3.2,2.9-4.8c0.7-1.5,1.2-2.7,1.7-3.9
					c0.3-0.9,0.6-1.8,0.7-2.5c0.3-1.1,0.4-2,0.5-3c0-0.4,0.1-1.9,0.1-1.9v-0.3V71.6H113.4z"/>
				<path class="st0" d="M98.1,71.6v60.6c0,0,0,0.2,0,0.5c0,0.3-0.1,0.7-0.1,1.1c0,0.2-0.1,0.5-0.1,0.6c-0.2,0.9-0.4,1.8-0.8,3
					c-0.7,2-1.9,4.5-3.6,7.3c-4.5,7.3-11,10.6-11,10.6l-5-7.8c0,0,1.7-0.9,3.7-2.9c1.3-1.3,2.9-3,4.3-5c1.3-2.1,2.1-4.1,2.6-5.7
					c0.4-1.3,0.5-2.4,0.5-3s0-0.9,0-0.9V71.6H98.1z"/>
			</g>
		</g>
	</g>
</g>
</svg>
